#!OML:ASF H:\charlestonDancing\Project 1\Capture day 1\Session 1\femaleDancer.ASF
:FULLY-SPECIFIED
:DEGREES
933
root -15.0035 17.6371 -0.0955505 -189.934 -94.1182 194.032
lowerback 9.78323 -2.9757 -0.427237
upperback -2.10394 -3.96517 0.892407
thorax -7.61913 -1.89406 1.82112
lowerneck -1.0171 -4.25398 -0.601574
upperneck 9.24341 -5.72699 -1.00252
head 3.11658 -2.94749 -0.395027
rclavicle 2.63638e-014 7.95139e-016
rhumerus -219.116 186.523 -253.707
rradius 30.3816
rwrist 35.9542
rhand -26.675 -35.0085
rfingers 7.12502
rthumb 179.894 115.012
lclavicle 2.63638e-014 7.95139e-016
lhumerus -49.1871 -1.8017 78.0912
lradius 50.3406
lwrist -12.9185
lhand -28.6995 7.99892
lfingers 7.12502
lthumb -2.06153 37.9687
rfemur -18.4447 -9.0743 18.003
rtibia 42.1298
rfoot -22.8896 -12.4917
rtoes -8.06732
lfemur -17.8311 0.29897 -18.2043
ltibia 39.6343
lfoot -15.1995 -9.09742
ltoes -18.0053
934
root -14.9587 17.6332 -0.0273593 -190.758 -93.8921 195.598
lowerback 9.86554 -2.70716 -0.619644
upperback -2.1351 -3.64639 0.671781
thorax -7.71144 -1.73316 1.65164
lowerneck -1.04144 -4.32701 -0.868236
upperneck 8.93891 -5.86228 -0.269079
head 3.05074 -2.99308 -0.114888
rclavicle 4.67517e-014 -3.37934e-015
rhumerus -219.074 184.451 -255.607
rradius 31.7783
rwrist 34.9522
rhand -27.529 -34.7857
rfingers 7.12502
rthumb 179.069 115.237
lclavicle 4.67517e-014 -3.37934e-015
lhumerus -48.4901 -3.09103 78.4225
lradius 50.2251
lwrist -12.5549
lhand -28.3979 8.37544
lfingers 7.12502
lthumb -1.77019 38.3478
rfemur -20.1312 -9.291 17.6329
rtibia 43.281
rfoot -22.8684 -11.1664
rtoes -7.47532
lfemur -18.8329 1.58178 -18.4667
ltibia 39.5768
lfoot -14.8567 -10.1057
ltoes -18.2593
935
root -14.9058 17.6258 0.0481472 -191.588 -93.8892 197.087
lowerback 9.67236 -2.52618 -0.680204
upperback -1.77655 -3.42571 0.435508
thorax -7.23407 -1.63619 1.37856
lowerneck -1.29573 -4.38607 -1.22309
upperneck 8.21627 -5.95817 0.525793
head 2.8936 -3.0151 0.200411
rclavicle 2.93207e-014 1.39149e-015
rhumerus -218.428 182.197 -257.563
rradius 33.317
rwrist 33.9683
rhand -27.6582 -34.9988
rfingers 7.12502
rthumb 178.944 115.024
lclavicle 2.93207e-014 1.39149e-015
lhumerus -47.2478 -4.13797 78.7083
lradius 50.3141
lwrist -12.119
lhand -27.7456 8.84401
lfingers 7.12502
lthumb -1.14016 38.8207
rfemur -21.7057 -9.94889 17.1311
rtibia 44.4526
rfoot -22.3808 -9.90143
rtoes -8.54138
lfemur -19.8589 2.72698 -18.8906
ltibia 39.7201
lfoot -14.8664 -10.9248
ltoes -20.0522
936
root -14.8398 17.6082 0.120962 -193.84 -93.972 199.877
lowerback 10.0185 -2.41463 -0.563781
upperback -1.56179 -3.29109 0.0385676
thorax -7.23682 -1.58426 0.886374
lowerneck -1.33906 -4.40936 -1.48037
upperneck 7.47986 -6.00533 1.24996
head 2.69009 -3.01715 0.48169
rclavicle 1.03399e-014 1.88845e-015
rhumerus -218.055 179.623 -259.686
rradius 34.9708
rwrist 32.4262
rhand -28.2546 -34.9583
rfingers 7.12502
rthumb 178.368 115.068
lclavicle 1.03399e-014 1.88845e-015
lhumerus -46.261 -5.20542 78.8364
lradius 50.6054
lwrist -11.4864
lhand -27.2523 9.35419
lfingers 7.12502
lthumb -0.663812 39.3329
rfemur -23.1786 -10.605 16.4938
rtibia 45.6305
rfoot -22.0391 -8.67361
rtoes -7.54201
lfemur -20.8341 3.61793 -19.4907
ltibia 39.9979
lfoot -14.8332 -11.6504
ltoes -19.9754
937
root -14.7617 17.5804 0.186735 -197.668 -94.1622 204.073
lowerback 10.8189 -2.30929 -0.595678
upperback -1.41447 -3.18891 -0.344453
thorax -7.55965 -1.53817 0.518303
lowerneck -1.08667 -4.34946 -1.53488
upperneck 6.66712 -5.92818 1.67229
head 2.38948 -2.96647 0.642613
rclavicle 3.68994e-015 5.51627e-015
rhumerus -217.923 176.868 -261.648
rradius 36.7211
rwrist 31.1523
rhand -28.94 -35.0099
rfingers 7.12502
rthumb 177.706 115.023
lclavicle 3.68994e-015 5.51627e-015
lhumerus -45.4415 -6.23315 79.1101
lradius 51.0112
lwrist -10.7142
lhand -27.4191 9.58178
lfingers 7.12502
lthumb -0.824835 39.5599
rfemur -24.512 -11.179 15.6893
rtibia 46.8297
rfoot -21.353 -7.83009
rtoes -6.39215
lfemur -21.7009 4.1926 -20.2348
ltibia 40.4098
lfoot -14.8108 -12.2055
ltoes -18.7468
938
root -14.6758 17.5499 0.246635 -199.922 -94.4579 206.479
lowerback 12.0002 -2.23732 -0.557698
upperback -1.21888 -3.12404 -0.658771
thorax -8.04655 -1.51093 0.200772
lowerneck -0.876429 -4.19582 -1.15133
upperneck 5.90979 -5.70161 1.49944
head 2.07862 -2.84809 0.542992
rclavicle 4.47266e-015 -1.39149e-015
rhumerus -217.81 174.198 -263.335
rradius 38.5303
rwrist 30.5122
rhand -29.2151 -35.246
rfingers 7.12502
rthumb 177.441 114.79
lclavicle 4.47266e-015 -1.39149e-015
lhumerus -44.647 -7.2043 79.4731
lradius 51.4691
lwrist -10.0762
lhand -27.6046 9.58548
lfingers 7.12502
lthumb -1.00406 39.5629
rfemur -25.5125 -11.6456 14.8996
rtibia 48.0289
rfoot -21.1619 -6.79537
rtoes -6.5288
lfemur -22.4731 4.42605 -20.8453
ltibia 41.0118
lfoot -14.9953 -12.5416
ltoes -18.0643
939
root -14.5853 17.5094 0.297612 -200.494 -94.8081 207.017
lowerback 13.3972 -2.1681 -0.443703
upperback -0.892934 -3.0493 -0.897392
thorax -8.51292 -1.48225 -0.0809301
lowerneck -0.779936 -4.16063 -0.906893
upperneck 5.04717 -5.62048 1.19858
head 1.76165 -2.80717 0.42267
rclavicle 5.20567e-014 1.53064e-014
rhumerus -217.555 171.768 -264.647
rradius 40.375
rwrist 30.1702
rhand -29.1794 -35.2493
rfingers 7.12502
rthumb 177.475 114.786
lclavicle 5.20567e-014 1.53064e-014
lhumerus -43.6543 -8.0452 79.8158
lradius 51.9422
lwrist -10.1423
lhand -27.3004 9.54307
lfingers 7.12502
lthumb -0.710181 39.5216
rfemur -26.2466 -11.8416 14.1821
rtibia 49.2516
rfoot -22.057 -5.17118
rtoes -10.1064
lfemur -23.1972 4.43229 -21.2717
ltibia 41.8703
lfoot -15.1354 -12.9964
ltoes -16.7461
940
root -14.4886 17.4502 0.336837 -200.811 -95.2296 207.22
lowerback 14.8864 -2.11001 -0.388676
upperback -0.483742 -3.00005 -1.11165
thorax -8.93176 -1.46495 -0.301988
lowerneck -0.648118 -4.22536 -1.10866
upperneck 4.04586 -5.68319 1.28624
head 1.42854 -2.83859 0.496749
rclavicle -1.64991e-014 -3.37934e-015
rhumerus -217.369 169.605 -265.67
rradius 42.4468
rwrist 30.0296
rhand -29.178 -34.7146
rfingers 7.12502
rthumb 177.476 115.321
lclavicle -1.64991e-014 -3.37934e-015
lhumerus -42.6546 -8.86575 80.1143
lradius 52.612
lwrist -10.3494
lhand -26.8031 9.56343
lfingers 7.12502
lthumb -0.229931 39.5431
rfemur -26.9017 -11.943 13.5114
rtibia 50.4901
rfoot -22.2577 -3.73611
rtoes -10.434
lfemur -24.008 4.26441 -21.6619
ltibia 43.0163
lfoot -15.0799 -13.5435
ltoes -14.6116
941
root -14.3851 17.374 0.36627 -201.376 -95.7439 207.716
lowerback 16.306 -2.0735 -0.46558
upperback -0.00373867 -3.00386 -1.29183
thorax -9.21841 -1.46912 -0.407822
lowerneck -0.591424 -4.28872 -1.30778
upperneck 3.03234 -5.74744 1.37943
head 1.10951 -2.87049 0.570206
rclavicle 3.16068e-014 2.38542e-015
rhumerus -217.17 167.619 -266.415
rradius 44.6688
rwrist 30.0352
rhand -29.4349 -34.0258
rfingers 7.12502
rthumb 177.228 116.013
lclavicle 3.16068e-014 2.38542e-015
lhumerus -41.6871 -9.57974 80.3582
lradius 53.5447
lwrist -10.4522
lhand -26.263 9.46074
lfingers 7.12502
lthumb 0.291775 39.4403
rfemur -27.658 -12.1933 12.8729
rtibia 51.7786
rfoot -22.6487 -2.87736
rtoes -11.2009
lfemur -25.0997 3.83021 -22.1098
ltibia 44.479
lfoot -14.8677 -13.9196
ltoes -12.2351
942
root -14.2829 17.2961 0.386661 -201.621 -96.2541 208.061
lowerback 17.4963 -1.99795 -0.62472
upperback 0.517426 -2.96705 -1.39158
thorax -9.31378 -1.45117 -0.401204
lowerneck -0.545927 -4.3957 -1.43814
upperneck 1.8705 -5.87112 1.38122
head 0.746309 -2.93271 0.605396
rclavicle 3.32467e-014 -1.98785e-015
rhumerus -216.747 165.664 -266.803
rradius 46.7961
rwrist 29.8577
rhand -29.7098 -34.0369
rfingers 7.12502
rthumb 176.963 116.005
lclavicle 3.32467e-014 -1.98785e-015
lhumerus -40.6957 -10.0956 80.5951
lradius 54.6761
lwrist -10.667
lhand -25.6986 8.95671
lfingers 7.12502
lthumb 0.836807 38.9348
rfemur -28.6587 -12.4388 12.375
rtibia 53.1011
rfoot -23.0564 -2.51945
rtoes -12.5983
lfemur -26.585 3.20986 -22.5337
ltibia 46.2428
lfoot -14.7905 -13.993
ltoes -10.6169
